<svg width="100" height="100" viewBox="0 0 100 100" fill="none" xmlns="http://www.w3.org/2000/svg">
<path d="M21.872 35.84C21.2107 35.84 20.7093 35.68 20.368 35.36C20.0267 35.0187 19.856 34.5813 19.856 34.048C19.856 33.472 20.016 32.9387 20.336 32.448C20.6773 31.936 21.1147 31.5307 21.648 31.232C22.1813 30.9333 22.736 30.784 23.312 30.784C23.568 30.784 23.824 30.816 24.08 30.88C24.3573 30.9227 24.624 30.9973 24.88 31.104V15.552H26.064V31.2C26.064 32.1173 25.8613 32.928 25.456 33.632C25.072 34.3147 24.56 34.8587 23.92 35.264C23.3013 35.648 22.6187 35.84 21.872 35.84ZM28.08 31.328C28.4427 30.496 28.7093 29.696 28.88 28.928C29.0507 28.1387 29.136 27.4133 29.136 26.752C29.136 25.7493 28.9547 24.9067 28.592 24.224C28.2507 23.52 27.8133 22.9653 27.28 22.56C26.7467 22.1547 26.2027 21.9093 25.648 21.824V16.672C25.904 17.1627 26.2027 17.6213 26.544 18.048C26.8853 18.4533 27.2267 18.8587 27.568 19.264C28.0587 19.7973 28.528 20.3733 28.976 20.992C29.424 21.6107 29.7867 22.3253 30.064 23.136C30.3627 23.9467 30.512 24.9067 30.512 26.016C30.512 27.0187 30.3733 27.9573 30.096 28.832C29.84 29.7067 29.4347 30.5387 28.88 31.328H28.08Z" fill="black" fill-opacity="0.2"/>
<path d="M41.768 85.456V80.464L38.632 81.968V79.472L41.768 78V70.16L38.632 71.664V69.168L41.768 67.664V62.576H43.272V67.056L48.424 64.56V59.12H49.928V63.952L53.064 62.48V64.944L49.928 66.448V74.288L53.064 72.88V75.376L49.928 76.752V82.32H48.424V77.36L43.272 79.856V85.456H41.768ZM43.272 77.392L48.424 74.896V67.056L43.272 69.552V77.392Z" fill="black" fill-opacity="0.2"/>
<path d="M76.632 47.8V28.312H77.816V47.48L77.56 46.84C77.9227 46.904 78.3707 46.84 78.904 46.648C79.4373 46.456 79.9707 46.1573 80.504 45.752C81.0587 45.3467 81.5173 44.8773 81.88 44.344C82.136 43.9813 82.328 43.5867 82.456 43.16C82.584 42.712 82.648 42.232 82.648 41.72C82.648 41.144 82.552 40.696 82.36 40.376C82.1893 40.056 81.8693 39.896 81.4 39.896C80.7387 39.896 80.056 40.184 79.352 40.76C78.6693 41.336 78.0933 42.008 77.624 42.776L77.592 41.592C78.232 40.6107 78.9147 39.8427 79.64 39.288C80.3653 38.7333 81.1227 38.456 81.912 38.456C82.68 38.456 83.2987 38.7227 83.768 39.256C84.2373 39.7893 84.472 40.5573 84.472 41.56C84.472 42.7547 84.12 43.832 83.416 44.792C82.712 45.752 81.7413 46.5093 80.504 47.064C79.9493 47.32 79.3947 47.5013 78.84 47.608C78.2853 47.736 77.7413 47.8 77.208 47.8H76.632Z" fill="black" fill-opacity="0.2"/>
</svg>
